<svg width="51" height="50" viewBox="0 0 51 50" fill="none" xmlns="http://www.w3.org/2000/svg">
<path d="M6.75 43.7502L29.6667 43.75V12.4776C29.6667 9.63584 29.6667 8.21497 29.0806 7.23011C28.5667 6.36659 27.7579 5.71786 26.8035 5.40351C25.715 5.04499 24.3279 5.35322 21.5537 5.96968L16.1371 7.17338C14.2744 7.58732 13.343 7.7943 12.6478 8.29515C12.0345 8.73695 11.553 9.33722 11.2548 10.0317C10.9167 10.819 10.9167 11.7731 10.9167 13.6813V43.7502M29.6542 10.4168H33.4167C35.7502 10.4168 36.9171 10.4168 37.8083 10.8709C38.5923 11.2704 39.2298 11.9078 39.6292 12.6919C40.0833 13.5832 40.0833 14.7499 40.0833 17.0835V43.7502H44.25M23.4167 25.0002H23.4375" stroke="black" stroke-width="4" stroke-linecap="round" stroke-linejoin="round"/>
</svg>
