<svg width="51" height="50" viewBox="0 0 51 50" fill="none" xmlns="http://www.w3.org/2000/svg">
<path fill-rule="evenodd" clip-rule="evenodd" d="M10.9167 10.4167C10.9167 9.26608 11.8494 8.33333 13 8.33333H38C39.1506 8.33333 40.0833 9.26608 40.0833 10.4167V22.9167C43.5352 22.9167 46.3333 25.7148 46.3333 29.1667V37.5C46.3333 40.9519 43.5352 43.75 40.0833 43.75H10.9167C7.46488 43.75 4.66667 40.9519 4.66667 37.5V29.1667C4.66667 25.7148 7.4649 22.9167 10.9167 22.9167V10.4167ZM10.9167 27.0833C9.76609 27.0833 8.83334 28.016 8.83334 29.1667V37.5C8.83334 38.6506 9.76609 39.5833 10.9167 39.5833H40.0833C41.234 39.5833 42.1667 38.6506 42.1667 37.5V29.1667C42.1667 28.016 41.234 27.0833 40.0833 27.0833V31.25C40.0833 32.4006 39.1506 33.3333 38 33.3333H13C11.8494 33.3333 10.9167 32.4006 10.9167 31.25V27.0833ZM15.0833 12.5V25V29.1667H35.9167V25V12.5H15.0833ZM19.25 18.75C19.25 17.5994 20.1828 16.6667 21.3333 16.6667H29.6667C30.8173 16.6667 31.75 17.5994 31.75 18.75C31.75 19.9006 30.8173 20.8333 29.6667 20.8333H21.3333C20.1828 20.8333 19.25 19.9006 19.25 18.75ZM19.25 25C19.25 23.8494 20.1828 22.9167 21.3333 22.9167H29.6667C30.8173 22.9167 31.75 23.8494 31.75 25C31.75 26.1506 30.8173 27.0833 29.6667 27.0833H21.3333C20.1828 27.0833 19.25 26.1506 19.25 25Z" fill="black"/>
</svg>
