<svg width="25" height="26" viewBox="0 0 25 26" fill="none" xmlns="http://www.w3.org/2000/svg">
<g clip-path="url(#clip0_1_579)">
<path fill-rule="evenodd" clip-rule="evenodd" d="M18.148 12.98L23.813 7.31996C25.376 5.75996 25.376 3.22004 23.813 1.66004C22.248 0.0900439 19.712 0.0900439 18.148 1.66004L12.484 7.31996L6.82002 1.66004C5.25702 0.0900439 2.72101 0.0900439 1.15601 1.66004C-0.406985 3.22004 -0.406985 5.75996 1.15601 7.31996L6.82002 12.98L1.15601 18.65C-0.406985 20.21 -0.406985 22.7501 1.15601 24.3101C2.72101 25.8801 5.25702 25.8801 6.82002 24.3101L12.484 18.65L18.148 24.3101C19.712 25.8801 22.248 25.8801 23.813 24.3101C25.376 22.7501 25.376 20.21 23.813 18.65L18.148 12.98Z" fill="black"/>
</g>
<defs>
<clipPath id="clip0_1_579">
<rect width="25" height="25" fill="white" transform="translate(0 0.5)"/>
</clipPath>
</defs>
</svg>
